<svg viewBox="0 0 128 128" xml:space="preserve" xmlns="http://www.w3.org/2000/svg"><g clip-rule="evenodd" fill-rule="evenodd"><path fill="none" d="M0 0h128v128H0z"></path><path d="M70.849 35.607c-3.673.279-7.917.557-12.154 1.114-6.495.858-12.99 1.988-18.348 4.533-10.453 4.239-17.52 13.282-17.52 26.556 0 16.685 10.732 25.156 24.301 25.156a46.77 46.77 0 0 0 11.567-1.408c5.381-1.702 9.889-4.811 15.255-10.466 3.108 4.239 3.966 6.227 9.325 10.744 1.415.557 2.83.557 3.951-.279 3.394-2.831 9.332-7.921 12.433-10.744 1.415-1.129 1.136-2.831.278-4.232-3.101-3.96-6.216-7.356-6.216-14.984V36.164c0-10.737.858-20.631-7.052-27.972C80.173 2.266 69.998 0 62.088 0h-3.394C44.297.836 29.05 7.055 25.648 24.862c-.564 2.266 1.136 3.11 2.265 3.388l15.819 1.98c1.693-.286 2.544-1.702 2.822-3.102 1.407-6.219 6.495-9.329 12.139-9.901h1.136c3.394 0 7.067 1.416 9.039 4.247 2.258 3.388 1.979 7.913 1.979 11.874v2.259zM67.74 69.225c-1.979 3.953-5.373 6.498-9.046 7.356-.557 0-1.407.279-2.258.279-6.209 0-9.881-4.804-9.881-11.866 0-9.05 5.366-13.282 12.139-15.27 3.673-.843 7.917-1.129 12.154-1.129v3.396c.001 6.497.279 11.58-3.108 17.234z" fill="#b29356" class="fill-343b45"></path><path d="M109.464 103.642a4.382 4.382 0 0 0-1.904.429c-.685.271-1.385.587-2.047.866l-.971.407-1.264.504v.015c-13.735 5.572-28.162 8.84-41.513 9.126-.489.015-.986.015-1.46.015-20.997.015-38.126-9.728-55.405-19.328-.602-.316-1.227-.482-1.829-.482-.775 0-1.573.294-2.152.836-.58.55-.926 1.34-.919 2.146-.008 1.047.557 2.01 1.347 2.635C17.565 114.899 35.342 127.985 59.251 128c.467 0 .941-.015 1.415-.023 15.21-.339 32.406-5.481 45.757-13.869l.083-.053a46.764 46.764 0 0 0 5.14-3.554c1.024-.76 1.731-1.95 1.731-3.185-.045-2.19-1.904-3.674-3.913-3.674zm18.521-7.785v-.008c-.06-1.333-.339-2.349-.896-3.192l-.06-.083-.068-.083c-.564-.617-1.106-.851-1.693-1.107-1.754-.678-4.305-1.039-7.375-1.047-2.205 0-4.636.211-7.082.745l-.008-.166-2.461.821-.045.023-1.392.452v.06a21.819 21.819 0 0 0-4.493 2.522c-.858.64-1.565 1.491-1.603 2.793-.023.708.339 1.521.933 2.003a2.984 2.984 0 0 0 1.896.648c.143 0 .278-.008.399-.03l.12-.008.09-.015c1.204-.256 2.958-.429 5.012-.715 1.761-.196 3.627-.339 5.246-.339 1.144-.008 2.175.075 2.882.226.354.075.617.166.76.241a.4.4 0 0 1 .113.053c.03.098.075.354.068.708.015 1.355-.557 3.87-1.347 6.325-.768 2.455-1.701 4.917-2.318 6.551a3.313 3.313 0 0 0-.248 1.242c-.015.655.256 1.453.828 1.98a2.771 2.771 0 0 0 1.881.738h.03c.903-.008 1.671-.369 2.333-.888 6.246-5.617 8.421-14.592 8.512-19.644l-.014-.806z" fill="#b29356" class="fill-ff9a00"></path></g></svg>