<svg viewBox="0 0 128 128" xml:space="preserve" xmlns="http://www.w3.org/2000/svg"><g clip-rule="evenodd" fill-rule="evenodd"><path fill="none" d="M0 0h128v128H0z"></path><path d="M70.45 19.568c0-.436.004-.864.004-1.332 0-4.08-.565-7.368-1.469-9.972 3.634.456 6.054 4.612 7.61 9.392-1.822.568-3.896 1.212-6.145 1.912zm-8.024 40.68s-4.251-2.28-9.461-2.28c-7.642 0-8.028 4.82-8.028 6.032 0 6.628 17.187 9.168 17.187 24.688 0 12.208-7.706 20.072-18.098 20.072-12.47 0-18.846-7.8-18.846-7.8l3.339-11.084s6.555 5.656 12.088 5.656c3.61 0 5.083-2.86 5.083-4.948 0-8.644-14.102-9.032-14.102-23.236 0-11.952 8.538-23.52 25.772-23.52 6.639 0 9.923 1.912 9.923 1.912l-4.857 14.508zm-2.83-55.82c.712 0 1.425.244 2.11.716-5.266 2.488-10.906 8.76-13.29 21.28l-10.034 3.124c2.789-9.552 9.416-25.12 21.214-25.12zm6.551 15.764c0 .252-.004.484-.004.716L53.446 24.86C55.89 15.38 60.472 10.8 64.48 9.072c1.007 2.544 1.667 6.196 1.667 11.12zm18.911-5.095c-.26.034-.485.085-.642.131-.084.024-1.485.46-3.805 1.18-2.272-6.568-6.28-12.604-13.329-12.604-.195 0-.398.008-.597.02C64.679 1.16 62.195 0 60.05 0 43.623 0 35.774 20.64 33.314 31.124c-6.384 1.988-10.918 3.4-11.495 3.584-3.566 1.124-3.678 1.236-4.143 4.608C17.322 41.872 8 114.324 8 114.324L80.639 128l.077-.017 4.342-112.886zm5.201 3.555 4.475 4.464s9.787.728 10.249.768c.466.04 1.027.396 1.114 1.04.088.644 13.903 94.52 13.903 94.52l-33.901 7.369 4.16-108.161z" fill="#b29356" class="fill-81bf37"></path></g></svg>