<svg viewBox="0 0 512 512" xml:space="preserve" xmlns="http://www.w3.org/2000/svg" enable-background="new 0 0 512 512"><path d="M461.679 262.35c-2.495-3.96-6.885-6.351-11.549-6.351H307.023l-98.702 212.076a13.71 13.71 0 0 1-12.428 7.923h-.03l.029.001h164.56a13.693 13.693 0 0 0 12.422-7.924l89.683-192.5a13.843 13.843 0 0 0-.878-13.225z" fill="#b29356" class="fill-4686f4"></path><path d="M403.41 55.58c1.973-4.261 1.671-9.268-.849-13.228A13.72 13.72 0 0 0 390.983 36H253.857a13.67 13.67 0 0 0-12.42 7.946L49.456 456.44c-1.979 4.264-1.672 9.244.85 13.204a13.723 13.723 0 0 0 11.573 6.354h137.124a13.713 13.713 0 0 0 12.429-7.923l98.702-212.076L403.41 55.58z" fill="#b29356" class="fill-f3b90f"></path></svg>